<svg xmlns="http://www.w3.org/2000/svg" xmlns:xlink="http://www.w3.org/1999/xlink" width="500" zoomAndPan="magnify" viewBox="0 0 375 374.999991" height="500" preserveAspectRatio="xMidYMid meet" version="1.0"><defs><g/><clipPath id="c571080324"><path d="M 6.746094 1 L 360.746094 1 L 360.746094 367 L 6.746094 367 Z M 6.746094 1 " clip-rule="nonzero"/></clipPath><clipPath id="8fca617aa8"><path d="M 52 7 L 365 7 L 365 373 L 52 373 Z M 52 7 " clip-rule="nonzero"/></clipPath><clipPath id="49ac839312"><path d="M 437.714844 329.246094 L 99.832031 434.847656 L -20.308594 50.433594 L 317.570312 -55.167969 Z M 437.714844 329.246094 " clip-rule="nonzero"/></clipPath><clipPath id="0ba8f18513"><path d="M 437.714844 329.246094 L 99.832031 434.847656 L -20.308594 50.433594 L 317.570312 -55.167969 Z M 437.714844 329.246094 " clip-rule="nonzero"/></clipPath></defs><g fill="#231f20" fill-opacity="1"><g transform="translate(25.121731, 226.03364)"><g><path d="M 163.65625 -26.15625 C 164.332031 -26.101562 164.859375 -25.878906 165.234375 -25.484375 C 165.617188 -25.085938 165.785156 -24.6875 165.734375 -24.28125 C 165.546875 -23.738281 165.257812 -23.394531 164.875 -23.25 C 164.5 -23.101562 164.09375 -23.03125 163.65625 -23.03125 C 159.132812 -23.1875 154.613281 -23.035156 150.09375 -22.578125 C 147.0625 -22.335938 143.988281 -22.160156 140.875 -22.046875 C 137.789062 -21.972656 134.734375 -21.785156 131.703125 -21.484375 C 130.972656 -21.429688 130.253906 -21.378906 129.546875 -21.328125 C 128.054688 -21.328125 127.335938 -20.550781 127.390625 -19 C 127.335938 -17.8125 127.3125 -16.59375 127.3125 -15.34375 C 127.3125 -14.96875 127.3125 -14.628906 127.3125 -14.328125 C 127.3125 -8.566406 127.3125 -2.800781 127.3125 2.96875 C 127.3125 18.445312 127.3125 33.929688 127.3125 49.421875 C 127.3125 52.179688 127.164062 54.929688 126.875 57.671875 C 126.757812 59.109375 125.921875 59.828125 124.359375 59.828125 C 122.515625 59.878906 121.441406 59.210938 121.140625 57.828125 C 120.847656 55.578125 120.703125 53.34375 120.703125 51.125 C 120.703125 35.78125 120.703125 20.414062 120.703125 5.03125 C 120.703125 0.15625 120.703125 -4.703125 120.703125 -9.546875 C 120.703125 -10.242188 120.703125 -10.921875 120.703125 -11.578125 C 120.703125 -13.847656 120.671875 -16.109375 120.609375 -18.359375 C 120.671875 -20.222656 119.832031 -21.035156 118.09375 -20.796875 C 116.738281 -20.660156 115.375 -20.535156 114 -20.421875 C 108.175781 -19.941406 102.3125 -19.375 96.40625 -18.71875 C 91.15625 -18.125 85.945312 -17.445312 80.78125 -16.6875 C 78.800781 -16.394531 76.835938 -16.125 74.890625 -15.875 C 74.210938 -15.738281 73.578125 -15.617188 72.984375 -15.515625 C 72.378906 -15.398438 71.820312 -15.304688 71.3125 -15.234375 C 69.875 -15.015625 69.1875 -14.1875 69.25 -12.75 C 69.1875 -10.53125 69.15625 -8.320312 69.15625 -6.125 C 69.101562 -2.800781 69.078125 0.5 69.078125 3.78125 C 69.078125 8.789062 69.078125 13.796875 69.078125 18.796875 C 69.078125 24.160156 69.035156 29.550781 68.953125 34.96875 C 69.035156 36.695312 68.957031 38.390625 68.71875 40.046875 C 68.46875 41.609375 67.476562 42.351562 65.75 42.28125 C 63.957031 42.351562 62.984375 41.609375 62.828125 40.046875 C 62.578125 37.960938 62.453125 35.875 62.453125 33.78125 C 62.453125 23.601562 62.425781 13.425781 62.375 3.25 C 62.375 -0.03125 62.375 -3.304688 62.375 -6.578125 C 62.289062 -6.929688 62.289062 -7.320312 62.375 -7.75 C 62.375 -8.40625 62.332031 -9.054688 62.25 -9.703125 C 62.332031 -11.734375 62.164062 -12.925781 61.75 -13.28125 C 61.332031 -13.632812 60.160156 -13.609375 58.234375 -13.203125 C 44.910156 -11.171875 31.695312 -8.664062 18.59375 -5.6875 C 16.21875 -5.09375 13.878906 -4.4375 11.578125 -3.71875 C 9.273438 -3 7.023438 -2.070312 4.828125 -0.9375 C 3.640625 -0.226562 2.328125 0.0976562 0.890625 0.046875 C 0.484375 -0.015625 0.0859375 -0.140625 -0.296875 -0.328125 C -0.691406 -0.515625 -1.015625 -0.8125 -1.265625 -1.21875 C -1.421875 -1.707031 -1.382812 -2.125 -1.15625 -2.46875 C -0.925781 -2.820312 -0.632812 -3.125 -0.28125 -3.375 C 1.445312 -4.726562 3.328125 -5.742188 5.359375 -6.421875 C 5.460938 -6.421875 5.554688 -6.445312 5.640625 -6.5 C 10.515625 -8.34375 15.484375 -9.738281 20.546875 -10.6875 C 32.210938 -13.25 43.953125 -15.425781 55.765625 -17.21875 C 57.410156 -17.519531 59.097656 -17.816406 60.828125 -18.109375 C 61.617188 -18.273438 62.039062 -18.75 62.09375 -19.53125 C 62.195312 -21.070312 62.25 -22.613281 62.25 -24.15625 C 62.332031 -32.6875 62.375 -41.242188 62.375 -49.828125 C 62.375 -61.492188 62.375 -73.164062 62.375 -84.84375 C 62.375 -90.039062 62.429688 -95.222656 62.546875 -100.390625 C 62.648438 -103.015625 64.015625 -104.113281 66.640625 -103.6875 C 68.023438 -103.519531 68.796875 -102.742188 68.953125 -101.359375 C 69.035156 -100.171875 69.078125 -98.984375 69.078125 -97.796875 C 69.078125 -97.628906 69.078125 -97.453125 69.078125 -97.265625 C 69.078125 -78.796875 69.101562 -60.359375 69.15625 -41.953125 C 69.15625 -36.535156 69.15625 -31.117188 69.15625 -25.703125 C 69.15625 -25.410156 69.15625 -25.113281 69.15625 -24.8125 C 69.15625 -24.21875 69.15625 -23.648438 69.15625 -23.109375 C 69.15625 -21.429688 69.34375 -20.414062 69.71875 -20.0625 C 70.101562 -19.707031 71.109375 -19.679688 72.734375 -19.984375 C 75.117188 -20.273438 77.472656 -20.570312 79.796875 -20.875 C 83.234375 -21.363281 86.710938 -21.8125 90.234375 -22.21875 C 96.597656 -22.914062 103.003906 -23.5625 109.453125 -24.15625 C 111.941406 -24.40625 114.472656 -24.675781 117.046875 -24.96875 C 117.285156 -24.96875 117.554688 -24.96875 117.859375 -24.96875 C 118.265625 -24.96875 118.679688 -25.035156 119.109375 -25.171875 C 120.054688 -25.335938 120.554688 -25.9375 120.609375 -26.96875 C 120.671875 -28.320312 120.703125 -29.6875 120.703125 -31.0625 C 120.703125 -41.488281 120.703125 -51.882812 120.703125 -62.25 C 120.703125 -65.695312 120.703125 -69.125 120.703125 -72.53125 C 120.703125 -72.53125 120.726562 -72.53125 120.78125 -72.53125 C 120.78125 -75.132812 120.78125 -77.75 120.78125 -80.375 C 120.78125 -91.582031 120.78125 -102.816406 120.78125 -114.078125 C 120.78125 -114.535156 120.78125 -115.035156 120.78125 -115.578125 C 120.863281 -116.285156 120.90625 -116.976562 120.90625 -117.65625 C 120.957031 -119.0625 121.546875 -119.957031 122.671875 -120.34375 C 123.796875 -120.738281 124.84375 -120.691406 125.8125 -120.203125 C 126.457031 -119.859375 126.835938 -119.332031 126.953125 -118.625 C 127.085938 -117.238281 127.15625 -115.875 127.15625 -114.53125 C 127.207031 -91.101562 127.257812 -67.679688 127.3125 -44.265625 C 127.3125 -40.335938 127.3125 -36.4375 127.3125 -32.5625 C 127.3125 -32.40625 127.3125 -32.234375 127.3125 -32.046875 C 127.3125 -31.503906 127.3125 -31.003906 127.3125 -30.546875 C 127.3125 -28.859375 127.375 -27.65625 127.5 -26.9375 C 127.625 -26.226562 127.96875 -25.8125 128.53125 -25.6875 C 129.101562 -25.5625 129.984375 -25.539062 131.171875 -25.625 C 131.578125 -25.625 132.050781 -25.625 132.59375 -25.625 C 138.25 -25.726562 143.878906 -25.835938 149.484375 -25.953125 C 152.816406 -26.085938 156.175781 -26.179688 159.5625 -26.234375 C 160.945312 -26.285156 162.3125 -26.257812 163.65625 -26.15625 Z M 163.65625 -26.15625 "/></g></g></g><g fill="#231f20" fill-opacity="1"><g transform="translate(184.975873, 226.03364)"><g><path d="M 45.9375 -20.875 C 45.195312 -18.601562 43.722656 -16 41.515625 -13.0625 C 39.316406 -10.125 36.566406 -8.234375 33.265625 -7.390625 C 29.960938 -6.546875 27.101562 -6.660156 24.6875 -7.734375 C 22.28125 -8.804688 20.957031 -11.671875 20.71875 -16.328125 C 17.976562 -11.015625 15.367188 -7.613281 12.890625 -6.125 C 10.410156 -4.644531 7.832031 -4.078125 5.15625 -4.421875 C 2.125 -4.910156 0.078125 -6.085938 -0.984375 -7.953125 C -2.054688 -9.828125 -2.414062 -11.988281 -2.0625 -14.4375 C -1.71875 -16.882812 -0.976562 -19.234375 0.15625 -21.484375 C 1.050781 -23.160156 2.289062 -24.71875 3.875 -26.15625 C 5.457031 -27.59375 7.117188 -28.71875 8.859375 -29.53125 C 10.992188 -30.613281 13.144531 -31.125 15.3125 -31.0625 C 17.476562 -31.007812 19.789062 -30.296875 22.25 -28.921875 C 22.3125 -28.859375 22.34375 -28.910156 22.34375 -29.078125 C 22.34375 -29.316406 22.398438 -29.617188 22.515625 -29.984375 C 22.640625 -30.359375 22.847656 -30.648438 23.140625 -30.859375 C 23.953125 -31.460938 24.914062 -31.765625 26.03125 -31.765625 C 27.144531 -31.765625 28 -31.207031 28.59375 -30.09375 C 28.695312 -28.65625 28.546875 -26.828125 28.140625 -24.609375 C 27.242188 -19.734375 27.242188 -16.226562 28.140625 -14.09375 C 29.035156 -11.957031 30.613281 -10.960938 32.875 -11.109375 C 35.132812 -11.253906 38.0625 -13.484375 41.65625 -17.796875 C 45.257812 -22.117188 46.6875 -23.144531 45.9375 -20.875 Z M 5.96875 -9.421875 C 7.21875 -8.523438 8.644531 -8.644531 10.25 -9.78125 C 11.863281 -10.925781 13.414062 -12.539062 14.90625 -14.625 C 16.394531 -16.707031 17.644531 -18.789062 18.65625 -20.875 C 19.675781 -22.957031 20.238281 -24.5 20.34375 -25.5 C 17.3125 -27.125 14.710938 -27.398438 12.546875 -26.328125 C 10.378906 -25.265625 8.648438 -23.519531 7.359375 -21.09375 C 6.078125 -18.675781 5.3125 -16.320312 5.0625 -14.03125 C 4.820312 -11.738281 5.125 -10.203125 5.96875 -9.421875 Z M 5.96875 -9.421875 "/></g></g></g><g fill="#231f20" fill-opacity="1"><g transform="translate(228.026023, 226.03364)"><g><path d="M 33.578125 -15.640625 C 35.671875 -18.941406 36.910156 -21.035156 37.296875 -21.921875 C 37.691406 -22.816406 38.003906 -22.773438 38.234375 -21.796875 C 38.460938 -20.828125 37.789062 -18.628906 36.21875 -15.203125 C 34.65625 -11.785156 32.707031 -9.148438 30.375 -7.296875 C 28.050781 -5.441406 25.878906 -4.753906 23.859375 -5.234375 C 21.835938 -5.722656 20.394531 -7.125 19.53125 -9.4375 C 18.664062 -11.757812 18.410156 -14.675781 18.765625 -18.1875 C 18.765625 -18.25 18.789062 -18.398438 18.84375 -18.640625 C 18.894531 -19.234375 18.992188 -20.113281 19.140625 -21.28125 C 19.296875 -22.445312 19.40625 -23.648438 19.46875 -24.890625 C 19.539062 -26.140625 19.5 -27.171875 19.34375 -27.984375 C 19.195312 -28.796875 18.828125 -29.078125 18.234375 -28.828125 C 16.796875 -28.046875 15.394531 -26.507812 14.03125 -24.21875 C 12.664062 -21.9375 11.425781 -19.539062 10.3125 -17.03125 C 9.207031 -14.53125 8.421875 -12.507812 7.953125 -10.96875 C 7.765625 -10.476562 7.59375 -9.960938 7.4375 -9.421875 C 7.1875 -8.710938 6.914062 -8.007812 6.625 -7.3125 C 5.832031 -5.28125 4.460938 -4.492188 2.515625 -4.953125 C 1.429688 -5.191406 0.796875 -5.851562 0.609375 -6.9375 C 0.554688 -7.78125 0.53125 -8.582031 0.53125 -9.34375 C 0.53125 -9.832031 0.503906 -10.28125 0.453125 -10.6875 C 0.335938 -16.695312 0.1875 -22.742188 0 -28.828125 C 0.0507812 -29.535156 0.359375 -30.023438 0.921875 -30.296875 C 1.492188 -30.566406 2.175781 -30.703125 2.96875 -30.703125 C 3.5625 -30.703125 4.117188 -30.539062 4.640625 -30.21875 C 5.171875 -29.894531 5.503906 -29.21875 5.640625 -28.1875 C 5.691406 -27.832031 5.71875 -27.476562 5.71875 -27.125 C 5.78125 -26.9375 5.8125 -26.757812 5.8125 -26.59375 C 5.914062 -25.757812 5.96875 -25.046875 5.96875 -24.453125 C 5.96875 -23.554688 6.023438 -22.945312 6.140625 -22.625 C 6.265625 -22.300781 6.523438 -22.3125 6.921875 -22.65625 C 7.316406 -23.007812 7.960938 -23.847656 8.859375 -25.171875 C 10.398438 -27.554688 12.304688 -29.578125 14.578125 -31.234375 C 16.660156 -32.722656 18.945312 -33.34375 21.4375 -33.09375 C 23.582031 -32.875 25.019531 -31.753906 25.75 -29.734375 C 26.039062 -28.703125 26.1875 -27.664062 26.1875 -26.625 C 26.1875 -25.582031 26.117188 -24.53125 25.984375 -23.46875 C 25.929688 -22.382812 25.851562 -21.273438 25.75 -20.140625 C 25.664062 -19.785156 25.597656 -19.4375 25.546875 -19.09375 C 25.191406 -15.21875 25.3125 -12.625 25.90625 -11.3125 C 26.5 -10 27.40625 -9.566406 28.625 -10.015625 C 29.84375 -10.460938 31.492188 -12.335938 33.578125 -15.640625 Z M 33.578125 -15.640625 "/></g></g></g><g fill="#231f20" fill-opacity="1"><g transform="translate(263.765771, 226.03364)"><g><path d="M 33.578125 -15.640625 C 35.671875 -18.941406 36.910156 -21.035156 37.296875 -21.921875 C 37.691406 -22.816406 38.003906 -22.773438 38.234375 -21.796875 C 38.460938 -20.828125 37.789062 -18.628906 36.21875 -15.203125 C 34.65625 -11.785156 32.707031 -9.148438 30.375 -7.296875 C 28.050781 -5.441406 25.878906 -4.753906 23.859375 -5.234375 C 21.835938 -5.722656 20.394531 -7.125 19.53125 -9.4375 C 18.664062 -11.757812 18.410156 -14.675781 18.765625 -18.1875 C 18.765625 -18.25 18.789062 -18.398438 18.84375 -18.640625 C 18.894531 -19.234375 18.992188 -20.113281 19.140625 -21.28125 C 19.296875 -22.445312 19.40625 -23.648438 19.46875 -24.890625 C 19.539062 -26.140625 19.5 -27.171875 19.34375 -27.984375 C 19.195312 -28.796875 18.828125 -29.078125 18.234375 -28.828125 C 16.796875 -28.046875 15.394531 -26.507812 14.03125 -24.21875 C 12.664062 -21.9375 11.425781 -19.539062 10.3125 -17.03125 C 9.207031 -14.53125 8.421875 -12.507812 7.953125 -10.96875 C 7.765625 -10.476562 7.59375 -9.960938 7.4375 -9.421875 C 7.1875 -8.710938 6.914062 -8.007812 6.625 -7.3125 C 5.832031 -5.28125 4.460938 -4.492188 2.515625 -4.953125 C 1.429688 -5.191406 0.796875 -5.851562 0.609375 -6.9375 C 0.554688 -7.78125 0.53125 -8.582031 0.53125 -9.34375 C 0.53125 -9.832031 0.503906 -10.28125 0.453125 -10.6875 C 0.335938 -16.695312 0.1875 -22.742188 0 -28.828125 C 0.0507812 -29.535156 0.359375 -30.023438 0.921875 -30.296875 C 1.492188 -30.566406 2.175781 -30.703125 2.96875 -30.703125 C 3.5625 -30.703125 4.117188 -30.539062 4.640625 -30.21875 C 5.171875 -29.894531 5.503906 -29.21875 5.640625 -28.1875 C 5.691406 -27.832031 5.71875 -27.476562 5.71875 -27.125 C 5.78125 -26.9375 5.8125 -26.757812 5.8125 -26.59375 C 5.914062 -25.757812 5.96875 -25.046875 5.96875 -24.453125 C 5.96875 -23.554688 6.023438 -22.945312 6.140625 -22.625 C 6.265625 -22.300781 6.523438 -22.3125 6.921875 -22.65625 C 7.316406 -23.007812 7.960938 -23.847656 8.859375 -25.171875 C 10.398438 -27.554688 12.304688 -29.578125 14.578125 -31.234375 C 16.660156 -32.722656 18.945312 -33.34375 21.4375 -33.09375 C 23.582031 -32.875 25.019531 -31.753906 25.75 -29.734375 C 26.039062 -28.703125 26.1875 -27.664062 26.1875 -26.625 C 26.1875 -25.582031 26.117188 -24.53125 25.984375 -23.46875 C 25.929688 -22.382812 25.851562 -21.273438 25.75 -20.140625 C 25.664062 -19.785156 25.597656 -19.4375 25.546875 -19.09375 C 25.191406 -15.21875 25.3125 -12.625 25.90625 -11.3125 C 26.5 -10 27.40625 -9.566406 28.625 -10.015625 C 29.84375 -10.460938 31.492188 -12.335938 33.578125 -15.640625 Z M 33.578125 -15.640625 "/></g></g></g><g fill="#231f20" fill-opacity="1"><g transform="translate(299.505519, 226.03364)"><g><path d="M 45.9375 -20.875 C 45.195312 -18.601562 43.722656 -16 41.515625 -13.0625 C 39.316406 -10.125 36.566406 -8.234375 33.265625 -7.390625 C 29.960938 -6.546875 27.101562 -6.660156 24.6875 -7.734375 C 22.28125 -8.804688 20.957031 -11.671875 20.71875 -16.328125 C 17.976562 -11.015625 15.367188 -7.613281 12.890625 -6.125 C 10.410156 -4.644531 7.832031 -4.078125 5.15625 -4.421875 C 2.125 -4.910156 0.078125 -6.085938 -0.984375 -7.953125 C -2.054688 -9.828125 -2.414062 -11.988281 -2.0625 -14.4375 C -1.71875 -16.882812 -0.976562 -19.234375 0.15625 -21.484375 C 1.050781 -23.160156 2.289062 -24.71875 3.875 -26.15625 C 5.457031 -27.59375 7.117188 -28.71875 8.859375 -29.53125 C 10.992188 -30.613281 13.144531 -31.125 15.3125 -31.0625 C 17.476562 -31.007812 19.789062 -30.296875 22.25 -28.921875 C 22.3125 -28.859375 22.34375 -28.910156 22.34375 -29.078125 C 22.34375 -29.316406 22.398438 -29.617188 22.515625 -29.984375 C 22.640625 -30.359375 22.847656 -30.648438 23.140625 -30.859375 C 23.953125 -31.460938 24.914062 -31.765625 26.03125 -31.765625 C 27.144531 -31.765625 28 -31.207031 28.59375 -30.09375 C 28.695312 -28.65625 28.546875 -26.828125 28.140625 -24.609375 C 27.242188 -19.734375 27.242188 -16.226562 28.140625 -14.09375 C 29.035156 -11.957031 30.613281 -10.960938 32.875 -11.109375 C 35.132812 -11.253906 38.0625 -13.484375 41.65625 -17.796875 C 45.257812 -22.117188 46.6875 -23.144531 45.9375 -20.875 Z M 5.96875 -9.421875 C 7.21875 -8.523438 8.644531 -8.644531 10.25 -9.78125 C 11.863281 -10.925781 13.414062 -12.539062 14.90625 -14.625 C 16.394531 -16.707031 17.644531 -18.789062 18.65625 -20.875 C 19.675781 -22.957031 20.238281 -24.5 20.34375 -25.5 C 17.3125 -27.125 14.710938 -27.398438 12.546875 -26.328125 C 10.378906 -25.265625 8.648438 -23.519531 7.359375 -21.09375 C 6.078125 -18.675781 5.3125 -16.320312 5.0625 -14.03125 C 4.820312 -11.738281 5.125 -10.203125 5.96875 -9.421875 Z M 5.96875 -9.421875 "/></g></g></g><g fill="#231f20" fill-opacity="1"><g transform="translate(200.243428, 238.353128)"><g><path d="M 4.484375 -5.84375 L 0.640625 -11.203125 L 2.078125 -11.203125 L 5.203125 -6.796875 L 8.3125 -11.203125 L 9.765625 -11.203125 L 5.921875 -5.84375 L 10.078125 0 L 8.640625 0 L 5.203125 -4.875 L 1.765625 0 L 0.3125 0 Z M 4.484375 -5.84375 "/></g></g></g><g fill="#231f20" fill-opacity="1"><g transform="translate(220.875014, 238.353128)"><g><path d="M 0.484375 -11.203125 L 1.765625 -11.203125 L 5.4375 -1.6875 L 9.125 -11.203125 L 10.40625 -11.203125 L 6 0 L 4.875 0 Z M 0.484375 -11.203125 "/></g></g></g><g fill="#231f20" fill-opacity="1"><g transform="translate(241.986308, 238.353128)"><g><path d="M 1.6875 -11.203125 L 2.875 -11.203125 L 2.875 0 L 1.6875 0 Z M 1.6875 -11.203125 "/></g></g></g><g clip-path="url(#c571080324)"><path fill="#3d3b3a" d="M 139.324219 7.210938 C 142.195312 6.492188 145.082031 5.839844 147.980469 5.261719 C 150.882812 4.683594 153.796875 4.175781 156.722656 3.734375 C 159.648438 3.296875 162.582031 2.929688 165.523438 2.636719 C 168.46875 2.339844 171.417969 2.117188 174.371094 1.964844 C 177.324219 1.8125 180.28125 1.730469 183.242188 1.722656 C 186.199219 1.714844 189.15625 1.777344 192.109375 1.914062 C 195.066406 2.050781 198.015625 2.253906 200.960938 2.535156 C 203.90625 2.8125 206.84375 3.164062 209.769531 3.582031 C 212.699219 4.003906 215.617188 4.496094 218.519531 5.058594 C 221.421875 5.625 224.3125 6.257812 227.1875 6.960938 C 230.058594 7.664062 232.914062 8.433594 235.75 9.277344 C 238.585938 10.121094 241.398438 11.03125 244.191406 12.007812 C 246.984375 12.988281 249.75 14.035156 252.488281 15.144531 C 255.230469 16.257812 257.941406 17.4375 260.625 18.683594 C 263.308594 19.929688 265.960938 21.238281 268.582031 22.613281 C 271.203125 23.984375 273.785156 25.421875 276.335938 26.921875 C 278.886719 28.421875 281.398438 29.980469 283.875 31.601562 C 286.347656 33.222656 288.78125 34.90625 291.175781 36.644531 C 293.566406 38.382812 295.914062 40.179688 298.222656 42.035156 C 300.527344 43.886719 302.785156 45.796875 305 47.761719 C 307.210938 49.722656 309.375 51.742188 311.488281 53.808594 C 313.605469 55.878906 315.667969 57.996094 317.679688 60.164062 C 319.691406 62.335938 321.648438 64.550781 323.550781 66.816406 C 325.457031 69.078125 327.304688 71.386719 329.09375 73.742188 C 330.886719 76.097656 332.621094 78.492188 334.296875 80.929688 C 335.972656 83.367188 337.585938 85.847656 339.140625 88.363281 C 340.695312 90.878906 342.191406 93.433594 343.621094 96.019531 C 345.050781 98.609375 346.417969 101.234375 347.722656 103.886719 C 349.027344 106.542969 350.265625 109.230469 351.4375 111.945312 C 352.609375 114.660156 353.714844 117.402344 354.757812 120.171875 C 355.796875 122.941406 356.769531 125.734375 357.671875 128.550781 C 358.574219 131.371094 359.410156 134.207031 360.175781 137.0625 C 360.460938 138.117188 360.738281 139.191406 361.007812 140.289062 L 358.214844 141.261719 C 357.933594 140.117188 357.640625 138.96875 357.332031 137.824219 C 356.574219 134.992188 355.746094 132.179688 354.847656 129.386719 C 353.953125 126.59375 352.988281 123.828125 351.957031 121.082031 C 350.925781 118.339844 349.824219 115.621094 348.660156 112.929688 C 347.496094 110.238281 346.265625 107.578125 344.96875 104.949219 C 343.675781 102.316406 342.316406 99.722656 340.894531 97.15625 C 339.472656 94.59375 337.988281 92.066406 336.441406 89.574219 C 334.894531 87.082031 333.289062 84.632812 331.621094 82.21875 C 329.957031 79.804688 328.230469 77.4375 326.449219 75.109375 C 324.667969 72.78125 322.828125 70.496094 320.933594 68.257812 C 319.042969 66.019531 317.09375 63.828125 315.09375 61.6875 C 313.089844 59.542969 311.039062 57.453125 308.933594 55.410156 C 306.832031 53.367188 304.679688 51.378906 302.476562 49.441406 C 300.277344 47.503906 298.027344 45.621094 295.734375 43.796875 C 293.441406 41.96875 291.105469 40.199219 288.726562 38.488281 C 286.34375 36.773438 283.925781 35.121094 281.464844 33.527344 C 279.003906 31.933594 276.503906 30.402344 273.96875 28.929688 C 271.433594 27.457031 268.863281 26.046875 266.257812 24.703125 C 263.652344 23.355469 261.015625 22.078125 258.347656 20.859375 C 255.679688 19.644531 252.984375 18.492188 250.261719 17.40625 C 247.535156 16.324219 244.789062 15.304688 242.011719 14.355469 C 239.238281 13.40625 236.445312 12.523438 233.628906 11.710938 C 230.808594 10.898438 227.976562 10.15625 225.121094 9.480469 C 222.269531 8.804688 219.398438 8.203125 216.515625 7.667969 C 213.632812 7.132812 210.738281 6.671875 207.832031 6.277344 C 204.929688 5.886719 202.015625 5.566406 199.09375 5.316406 C 196.171875 5.066406 193.246094 4.890625 190.316406 4.78125 C 187.386719 4.675781 184.453125 4.640625 181.523438 4.679688 C 178.589844 4.714844 175.664062 4.824219 172.734375 5.007812 C 169.808594 5.1875 166.890625 5.4375 163.976562 5.761719 C 161.0625 6.085938 158.15625 6.480469 155.261719 6.949219 C 152.367188 7.414062 149.484375 7.949219 146.617188 8.558594 C 143.75 9.164062 140.894531 9.839844 138.0625 10.585938 C 138.503906 9.472656 138.929688 8.359375 139.324219 7.21875 Z M 9.535156 228.007812 C 9.773438 228.949219 10.011719 229.882812 10.265625 230.820312 C 11.023438 233.660156 11.855469 236.480469 12.753906 239.277344 C 13.652344 242.078125 14.621094 244.851562 15.65625 247.601562 C 16.691406 250.355469 17.792969 253.078125 18.960938 255.773438 C 20.132812 258.472656 21.367188 261.136719 22.664062 263.773438 C 23.964844 266.410156 25.328125 269.015625 26.757812 271.582031 C 28.183594 274.152344 29.675781 276.683594 31.226562 279.183594 C 32.777344 281.679688 34.390625 284.132812 36.0625 286.550781 C 37.738281 288.96875 39.46875 291.34375 41.257812 293.675781 C 43.046875 296.007812 44.890625 298.292969 46.792969 300.535156 C 48.695312 302.777344 50.648438 304.972656 52.65625 307.117188 C 54.667969 309.261719 56.726562 311.359375 58.839844 313.402344 C 60.953125 315.445312 63.113281 317.4375 65.320312 319.375 C 67.53125 321.316406 69.789062 323.199219 72.089844 325.027344 C 74.390625 326.855469 76.738281 328.625 79.125 330.335938 C 81.515625 332.050781 83.945312 333.703125 86.414062 335.296875 C 88.882812 336.890625 91.390625 338.421875 93.9375 339.890625 C 96.480469 341.363281 99.0625 342.769531 101.675781 344.113281 C 104.289062 345.457031 106.9375 346.734375 109.613281 347.949219 C 112.289062 349.164062 114.996094 350.308594 117.730469 351.390625 C 120.460938 352.472656 123.222656 353.484375 126.003906 354.429688 C 128.789062 355.375 131.589844 356.253906 134.417969 357.0625 C 137.242188 357.871094 140.089844 358.609375 142.949219 359.277344 C 145.8125 359.945312 148.691406 360.542969 151.582031 361.070312 C 154.472656 361.597656 157.375 362.050781 160.289062 362.4375 C 163.203125 362.820312 166.125 363.136719 169.054688 363.375 C 171.984375 363.617188 174.917969 363.785156 177.855469 363.882812 C 180.792969 363.980469 183.734375 364.007812 186.671875 363.960938 C 189.609375 363.914062 192.546875 363.792969 195.480469 363.601562 C 198.414062 363.414062 201.339844 363.148438 204.261719 362.816406 C 207.179688 362.480469 210.089844 362.074219 212.992188 361.597656 C 215.890625 361.117188 218.777344 360.570312 221.652344 359.953125 C 224.527344 359.332031 227.382812 358.644531 230.222656 357.882812 C 229.761719 359 229.320312 360.121094 228.910156 361.261719 C 226.035156 361.992188 223.148438 362.652344 220.242188 363.246094 C 217.335938 363.835938 214.417969 364.355469 211.488281 364.804688 C 208.554688 365.253906 205.617188 365.632812 202.667969 365.9375 C 199.71875 366.242188 196.761719 366.476562 193.800781 366.636719 C 190.839844 366.800781 187.878906 366.890625 184.914062 366.90625 C 181.949219 366.925781 178.984375 366.871094 176.023438 366.742188 C 173.058594 366.617188 170.101562 366.417969 167.148438 366.148438 C 164.195312 365.875 161.253906 365.535156 158.316406 365.121094 C 155.378906 364.707031 152.457031 364.222656 149.542969 363.664062 C 146.632812 363.109375 143.734375 362.480469 140.851562 361.78125 C 137.972656 361.085938 135.109375 360.316406 132.261719 359.480469 C 129.417969 358.644531 126.597656 357.738281 123.796875 356.761719 C 120.996094 355.789062 118.222656 354.746094 115.472656 353.636719 C 112.722656 352.527344 110 351.351562 107.308594 350.109375 C 104.617188 348.867188 101.957031 347.558594 99.328125 346.1875 C 96.699219 344.816406 94.105469 343.382812 91.546875 341.882812 C 88.988281 340.386719 86.464844 338.824219 83.984375 337.203125 C 81.5 335.582031 79.058594 333.902344 76.65625 332.164062 C 74.257812 330.425781 71.898438 328.625 69.585938 326.773438 C 67.273438 324.917969 65.007812 323.007812 62.785156 321.042969 C 60.566406 319.078125 58.394531 317.058594 56.273438 314.988281 C 54.148438 312.917969 52.078125 310.796875 50.058594 308.625 C 48.042969 306.453125 46.078125 304.234375 44.164062 301.96875 C 42.253906 299.699219 40.398438 297.386719 38.601562 295.03125 C 36.804688 292.671875 35.0625 290.273438 33.382812 287.832031 C 31.703125 285.386719 30.082031 282.90625 28.519531 280.386719 C 26.960938 277.863281 25.460938 275.304688 24.027344 272.710938 C 22.589844 270.117188 21.21875 267.488281 19.910156 264.828125 C 18.601562 262.167969 17.359375 259.476562 16.183594 256.753906 C 15.007812 254.035156 13.898438 251.285156 12.855469 248.507812 C 11.8125 245.734375 10.835938 242.933594 9.929688 240.113281 C 9.023438 237.289062 8.1875 234.445312 7.417969 231.582031 C 7.1875 230.71875 6.96875 229.847656 6.746094 228.988281 Z M 9.535156 228.007812 " fill-opacity="1" fill-rule="evenodd"/></g><g clip-path="url(#8fca617aa8)"><g clip-path="url(#49ac839312)"><g clip-path="url(#0ba8f18513)"><path fill="#ffee52" d="M 303.914062 345.582031 C 301.390625 347.125 298.832031 348.605469 296.234375 350.023438 C 293.640625 351.441406 291.011719 352.796875 288.347656 354.089844 C 285.6875 355.378906 282.996094 356.605469 280.273438 357.765625 C 277.550781 358.925781 274.804688 360.019531 272.03125 361.042969 C 269.253906 362.070312 266.457031 363.03125 263.636719 363.917969 C 260.816406 364.808594 257.972656 365.632812 255.113281 366.382812 C 252.253906 367.136719 249.375 367.820312 246.480469 368.433594 C 243.585938 369.042969 240.679688 369.585938 237.757812 370.058594 C 234.839844 370.53125 231.910156 370.929688 228.96875 371.257812 C 226.027344 371.589844 223.082031 371.84375 220.128906 372.03125 C 217.175781 372.21875 214.222656 372.332031 211.265625 372.375 C 208.304688 372.414062 205.347656 372.386719 202.394531 372.285156 C 199.4375 372.183594 196.484375 372.011719 193.535156 371.765625 C 190.585938 371.519531 187.648438 371.203125 184.714844 370.816406 C 181.78125 370.429688 178.859375 369.96875 175.949219 369.441406 C 173.039062 368.910156 170.144531 368.3125 167.261719 367.640625 C 164.378906 366.96875 161.515625 366.230469 158.671875 365.421875 C 155.828125 364.609375 153.003906 363.734375 150.199219 362.785156 C 147.398438 361.839844 144.621094 360.824219 141.867188 359.742188 C 139.113281 358.660156 136.386719 357.511719 133.6875 356.300781 C 130.992188 355.085938 128.324219 353.804688 125.691406 352.460938 C 123.054688 351.117188 120.453125 349.710938 117.886719 348.242188 C 115.320312 346.773438 112.789062 345.238281 110.296875 343.648438 C 107.804688 342.054688 105.351562 340.402344 102.9375 338.6875 C 100.527344 336.976562 98.15625 335.207031 95.832031 333.378906 C 93.503906 331.550781 91.222656 329.667969 88.988281 327.730469 C 86.753906 325.792969 84.566406 323.800781 82.429688 321.757812 C 80.289062 319.714844 78.203125 317.617188 76.167969 315.472656 C 74.132812 313.328125 72.148438 311.132812 70.21875 308.890625 C 68.289062 306.648438 66.414062 304.359375 64.59375 302.027344 C 62.777344 299.695312 61.015625 297.316406 59.3125 294.898438 C 57.609375 292.480469 55.964844 290.019531 54.382812 287.523438 C 53.796875 286.601562 53.210938 285.65625 52.628906 284.691406 L 55.003906 282.929688 C 55.617188 283.941406 56.238281 284.945312 56.875 285.949219 C 58.441406 288.425781 60.070312 290.863281 61.757812 293.261719 C 63.449219 295.65625 65.195312 298.011719 66.996094 300.324219 C 68.800781 302.636719 70.660156 304.902344 72.574219 307.121094 C 74.488281 309.34375 76.457031 311.515625 78.476562 313.640625 C 80.5 315.761719 82.570312 317.835938 84.691406 319.859375 C 86.816406 321.882812 88.984375 323.851562 91.203125 325.769531 C 93.421875 327.683594 95.6875 329.546875 98 331.351562 C 100.308594 333.15625 102.660156 334.90625 105.058594 336.597656 C 107.453125 338.285156 109.886719 339.917969 112.363281 341.488281 C 114.839844 343.058594 117.351562 344.570312 119.902344 346.019531 C 122.449219 347.464844 125.035156 348.851562 127.652344 350.171875 C 130.269531 351.496094 132.914062 352.75 135.59375 353.945312 C 138.273438 355.136719 140.980469 356.261719 143.714844 357.320312 C 146.449219 358.378906 149.207031 359.371094 151.988281 360.296875 C 154.769531 361.222656 157.574219 362.078125 160.398438 362.863281 C 163.222656 363.652344 166.066406 364.371094 168.925781 365.015625 C 171.785156 365.664062 174.65625 366.242188 177.546875 366.75 C 180.433594 367.257812 183.332031 367.695312 186.242188 368.058594 C 189.148438 368.425781 192.066406 368.71875 194.988281 368.941406 C 197.914062 369.164062 200.839844 369.316406 203.769531 369.394531 C 206.703125 369.472656 209.632812 369.480469 212.566406 369.417969 C 215.496094 369.351562 218.425781 369.21875 221.347656 369.011719 C 224.273438 368.800781 227.191406 368.523438 230.101562 368.171875 C 233.011719 367.820312 235.914062 367.402344 238.804688 366.910156 C 241.695312 366.414062 244.570312 365.851562 247.433594 365.21875 C 250.296875 364.585938 253.140625 363.882812 255.972656 363.109375 C 258.800781 362.335938 261.605469 361.496094 264.394531 360.585938 C 267.179688 359.675781 269.945312 358.699219 272.683594 357.652344 C 275.421875 356.609375 278.136719 355.496094 280.820312 354.316406 C 283.503906 353.140625 286.160156 351.894531 288.785156 350.585938 C 291.40625 349.28125 293.996094 347.90625 296.554688 346.472656 C 299.113281 345.039062 301.632812 343.539062 304.113281 341.980469 C 304.023438 343.179688 303.949219 344.371094 303.914062 345.574219 Z M 361.929688 96.121094 C 361.421875 95.292969 360.917969 94.476562 360.398438 93.652344 C 358.824219 91.167969 357.191406 88.726562 355.496094 86.324219 C 353.804688 83.921875 352.054688 81.5625 350.246094 79.242188 C 348.4375 76.925781 346.570312 74.65625 344.652344 72.429688 C 342.730469 70.207031 340.757812 68.027344 338.730469 65.898438 C 336.703125 63.769531 334.625 61.695312 332.496094 59.667969 C 330.367188 57.640625 328.1875 55.667969 325.960938 53.746094 C 323.734375 51.828125 321.464844 49.964844 319.148438 48.15625 C 316.828125 46.347656 314.46875 44.597656 312.066406 42.90625 C 309.664062 41.214844 307.21875 39.582031 304.734375 38.007812 C 302.25 36.4375 299.730469 34.925781 297.171875 33.476562 C 294.617188 32.027344 292.023438 30.644531 289.398438 29.320312 C 286.773438 28 284.117188 26.746094 281.429688 25.554688 C 278.742188 24.363281 276.027344 23.238281 273.285156 22.179688 C 270.542969 21.121094 267.777344 20.132812 264.984375 19.210938 C 262.195312 18.289062 259.382812 17.433594 256.546875 16.652344 C 253.714844 15.867188 250.867188 15.152344 247.996094 14.507812 C 245.128906 13.863281 242.246094 13.292969 239.351562 12.789062 C 236.457031 12.285156 233.546875 11.855469 230.632812 11.496094 C 227.714844 11.136719 224.789062 10.847656 221.859375 10.628906 C 218.925781 10.414062 215.992188 10.269531 213.054688 10.195312 C 210.113281 10.125 207.175781 10.125 204.238281 10.195312 C 201.300781 10.269531 198.363281 10.410156 195.433594 10.628906 C 192.5 10.84375 189.578125 11.132812 186.660156 11.492188 C 183.742188 11.851562 180.835938 12.28125 177.9375 12.78125 C 175.042969 13.285156 172.160156 13.859375 169.292969 14.5 C 166.425781 15.144531 163.574219 15.859375 160.742188 16.640625 C 157.90625 17.425781 155.097656 18.277344 152.304688 19.199219 C 149.511719 20.121094 146.746094 21.109375 144.003906 22.167969 C 141.261719 23.226562 138.546875 24.347656 135.859375 25.539062 C 133.171875 26.730469 130.515625 27.984375 127.886719 29.304688 C 125.261719 30.628906 122.671875 32.011719 120.113281 33.460938 C 117.554688 34.910156 115.035156 36.417969 112.550781 37.988281 C 112.65625 36.789062 112.742188 35.585938 112.796875 34.375 C 115.320312 32.820312 117.878906 31.328125 120.476562 29.894531 C 123.074219 28.464844 125.703125 27.097656 128.367188 25.796875 C 131.03125 24.492188 133.726562 23.253906 136.449219 22.082031 C 139.171875 20.914062 141.921875 19.808594 144.699219 18.769531 C 147.476562 17.730469 150.28125 16.761719 153.105469 15.859375 C 155.929688 14.960938 158.773438 14.128906 161.640625 13.367188 C 164.503906 12.601562 167.386719 11.910156 170.285156 11.289062 C 173.183594 10.664062 176.097656 10.113281 179.023438 9.632812 C 181.949219 9.152344 184.886719 8.742188 187.832031 8.40625 C 190.777344 8.070312 193.730469 7.804688 196.6875 7.609375 C 199.644531 7.414062 202.609375 7.292969 205.574219 7.246094 C 208.535156 7.195312 211.5 7.21875 214.464844 7.3125 C 217.429688 7.40625 220.386719 7.574219 223.34375 7.8125 C 226.296875 8.050781 229.246094 8.363281 232.1875 8.746094 C 235.128906 9.128906 238.054688 9.582031 240.972656 10.105469 C 243.890625 10.632812 246.796875 11.226562 249.683594 11.894531 C 252.574219 12.5625 255.445312 13.296875 258.300781 14.105469 C 261.152344 14.910156 263.984375 15.785156 266.796875 16.730469 C 269.605469 17.675781 272.390625 18.6875 275.152344 19.765625 C 277.914062 20.847656 280.648438 21.992188 283.351562 23.207031 C 286.058594 24.417969 288.734375 25.699219 291.375 27.042969 C 294.019531 28.386719 296.628906 29.792969 299.203125 31.261719 C 301.777344 32.734375 304.316406 34.265625 306.816406 35.859375 C 309.316406 37.453125 311.777344 39.105469 314.195312 40.820312 C 316.613281 42.535156 318.992188 44.308594 321.324219 46.136719 C 323.65625 47.964844 325.945312 49.851562 328.1875 51.792969 C 330.429688 53.734375 332.621094 55.726562 334.765625 57.773438 C 336.910156 59.824219 339.003906 61.921875 341.042969 64.070312 C 343.085938 66.222656 345.074219 68.417969 347.011719 70.664062 C 348.945312 72.914062 350.824219 75.203125 352.648438 77.542969 C 354.472656 79.882812 356.238281 82.261719 357.945312 84.6875 C 359.652344 87.109375 361.300781 89.574219 362.886719 92.078125 C 363.363281 92.832031 363.832031 93.597656 364.300781 94.355469 Z M 361.929688 96.121094 " fill-opacity="1" fill-rule="evenodd"/></g></g></g></svg>