<svg xmlns="http://www.w3.org/2000/svg" xmlns:xlink="http://www.w3.org/1999/xlink" width="500" zoomAndPan="magnify" viewBox="0 0 375 374.999991" height="500" preserveAspectRatio="xMidYMid meet" version="1.0"><defs><g/><clipPath id="df832fc23e"><path d="M 2.714844 2 L 356.714844 2 L 356.714844 368 L 2.714844 368 Z M 2.714844 2 " clip-rule="nonzero"/></clipPath><clipPath id="22353b653c"><path d="M 48 8 L 360 8 L 360 373 L 48 373 Z M 48 8 " clip-rule="nonzero"/></clipPath><clipPath id="2f73471881"><path d="M 433 329.777344 L 95.117188 435.378906 L -25.023438 50.964844 L 312.859375 -54.632812 Z M 433 329.777344 " clip-rule="nonzero"/></clipPath><clipPath id="61757c1f6f"><path d="M 433 329.777344 L 95.117188 435.378906 L -25.023438 50.964844 L 312.859375 -54.632812 Z M 433 329.777344 " clip-rule="nonzero"/></clipPath></defs><g fill="#ffffff" fill-opacity="1"><g transform="translate(21.063385, 226.729822)"><g><path d="M 163.421875 -26.109375 C 164.097656 -26.054688 164.625 -25.832031 165 -25.4375 C 165.375 -25.050781 165.535156 -24.65625 165.484375 -24.25 C 165.296875 -23.707031 165.007812 -23.359375 164.625 -23.203125 C 164.25 -23.054688 163.847656 -22.984375 163.421875 -22.984375 C 158.898438 -23.148438 154.382812 -23.003906 149.875 -22.546875 C 146.84375 -22.304688 143.773438 -22.128906 140.671875 -22.015625 C 137.585938 -21.929688 134.53125 -21.742188 131.5 -21.453125 C 130.769531 -21.398438 130.054688 -21.34375 129.359375 -21.28125 C 127.867188 -21.28125 127.148438 -20.515625 127.203125 -18.984375 C 127.148438 -17.785156 127.125 -16.566406 127.125 -15.328125 C 127.125 -14.953125 127.125 -14.613281 127.125 -14.3125 C 127.125 -8.550781 127.125 -2.796875 127.125 2.953125 C 127.125 18.421875 127.125 33.882812 127.125 49.34375 C 127.125 52.101562 126.972656 54.847656 126.671875 57.578125 C 126.566406 59.015625 125.734375 59.734375 124.171875 59.734375 C 122.328125 59.785156 121.257812 59.125 120.96875 57.75 C 120.664062 55.5 120.515625 53.265625 120.515625 51.046875 C 120.515625 35.722656 120.515625 20.382812 120.515625 5.03125 C 120.515625 0.164062 120.515625 -4.6875 120.515625 -9.53125 C 120.515625 -10.226562 120.515625 -10.90625 120.515625 -11.5625 C 120.515625 -13.832031 120.488281 -16.085938 120.4375 -18.328125 C 120.488281 -20.191406 119.648438 -21.003906 117.921875 -20.765625 C 116.566406 -20.628906 115.203125 -20.503906 113.828125 -20.390625 C 108.015625 -19.910156 102.160156 -19.34375 96.265625 -18.6875 C 91.023438 -18.09375 85.820312 -17.421875 80.65625 -16.671875 C 78.675781 -16.367188 76.71875 -16.097656 74.78125 -15.859375 C 74.101562 -15.722656 73.46875 -15.597656 72.875 -15.484375 C 72.28125 -15.378906 71.722656 -15.285156 71.203125 -15.203125 C 69.773438 -14.984375 69.085938 -14.160156 69.140625 -12.734375 C 69.085938 -10.515625 69.0625 -8.3125 69.0625 -6.125 C 69 -2.800781 68.96875 0.492188 68.96875 3.765625 C 68.96875 8.765625 68.96875 13.769531 68.96875 18.78125 C 68.96875 24.125 68.929688 29.5 68.859375 34.90625 C 68.929688 36.644531 68.847656 38.335938 68.609375 39.984375 C 68.367188 41.546875 67.382812 42.289062 65.65625 42.21875 C 63.863281 42.289062 62.890625 41.546875 62.734375 39.984375 C 62.484375 37.898438 62.359375 35.816406 62.359375 33.734375 C 62.359375 23.566406 62.332031 13.40625 62.28125 3.25 C 62.28125 -0.0195312 62.28125 -3.289062 62.28125 -6.5625 C 62.195312 -6.914062 62.195312 -7.3125 62.28125 -7.75 C 62.28125 -8.394531 62.238281 -9.039062 62.15625 -9.6875 C 62.238281 -11.71875 62.070312 -12.90625 61.65625 -13.25 C 61.238281 -13.601562 60.070312 -13.578125 58.15625 -13.171875 C 44.851562 -11.148438 31.660156 -8.648438 18.578125 -5.671875 C 16.191406 -5.078125 13.847656 -4.421875 11.546875 -3.703125 C 9.253906 -2.992188 7.015625 -2.070312 4.828125 -0.9375 C 3.640625 -0.226562 2.328125 0.0976562 0.890625 0.046875 C 0.484375 -0.015625 0.0859375 -0.140625 -0.296875 -0.328125 C -0.691406 -0.515625 -1.007812 -0.8125 -1.25 -1.21875 C -1.414062 -1.707031 -1.382812 -2.125 -1.15625 -2.46875 C -0.925781 -2.820312 -0.632812 -3.117188 -0.28125 -3.359375 C 1.445312 -4.710938 3.328125 -5.726562 5.359375 -6.40625 C 5.460938 -6.40625 5.554688 -6.429688 5.640625 -6.484375 C 10.503906 -8.328125 15.460938 -9.722656 20.515625 -10.671875 C 32.171875 -13.234375 43.890625 -15.40625 55.671875 -17.1875 C 57.328125 -17.488281 59.019531 -17.785156 60.75 -18.078125 C 61.53125 -18.242188 61.945312 -18.71875 62 -19.5 C 62.101562 -21.039062 62.15625 -22.582031 62.15625 -24.125 C 62.238281 -32.644531 62.28125 -41.1875 62.28125 -49.75 C 62.28125 -61.40625 62.28125 -73.054688 62.28125 -84.703125 C 62.28125 -89.898438 62.335938 -95.078125 62.453125 -100.234375 C 62.554688 -102.859375 63.921875 -103.957031 66.546875 -103.53125 C 67.921875 -103.363281 68.691406 -102.59375 68.859375 -101.21875 C 68.929688 -100.019531 68.96875 -98.828125 68.96875 -97.640625 C 68.96875 -97.484375 68.96875 -97.3125 68.96875 -97.125 C 68.96875 -78.6875 69 -60.273438 69.0625 -41.890625 C 69.0625 -36.484375 69.0625 -31.078125 69.0625 -25.671875 C 69.0625 -25.367188 69.0625 -25.070312 69.0625 -24.78125 C 69.0625 -24.1875 69.0625 -23.617188 69.0625 -23.078125 C 69.0625 -21.398438 69.25 -20.382812 69.625 -20.03125 C 70 -19.675781 71 -19.648438 72.625 -19.953125 C 75 -20.242188 77.351562 -20.539062 79.6875 -20.84375 C 83.113281 -21.332031 86.585938 -21.78125 90.109375 -22.1875 C 96.453125 -22.882812 102.84375 -23.53125 109.28125 -24.125 C 111.769531 -24.375 114.296875 -24.644531 116.859375 -24.9375 C 117.109375 -24.9375 117.378906 -24.9375 117.671875 -24.9375 C 118.078125 -24.9375 118.5 -25.003906 118.9375 -25.140625 C 119.882812 -25.304688 120.382812 -25.898438 120.4375 -26.921875 C 120.488281 -28.273438 120.515625 -29.640625 120.515625 -31.015625 C 120.515625 -41.421875 120.515625 -51.800781 120.515625 -62.15625 C 120.515625 -65.59375 120.515625 -69.015625 120.515625 -72.421875 C 120.515625 -72.421875 120.539062 -72.421875 120.59375 -72.421875 C 120.59375 -75.015625 120.59375 -77.625 120.59375 -80.25 C 120.59375 -91.4375 120.59375 -102.65625 120.59375 -113.90625 C 120.59375 -114.363281 120.59375 -114.863281 120.59375 -115.40625 C 120.675781 -116.101562 120.71875 -116.789062 120.71875 -117.46875 C 120.769531 -118.875 121.359375 -119.773438 122.484375 -120.171875 C 123.609375 -120.566406 124.65625 -120.519531 125.625 -120.03125 C 126.269531 -119.675781 126.648438 -119.148438 126.765625 -118.453125 C 126.898438 -117.066406 126.96875 -115.703125 126.96875 -114.359375 C 127.019531 -90.972656 127.070312 -67.585938 127.125 -44.203125 C 127.125 -40.273438 127.125 -36.378906 127.125 -32.515625 C 127.125 -32.359375 127.125 -32.1875 127.125 -32 C 127.125 -31.457031 127.125 -30.957031 127.125 -30.5 C 127.125 -28.820312 127.179688 -27.625 127.296875 -26.90625 C 127.421875 -26.1875 127.765625 -25.765625 128.328125 -25.640625 C 128.898438 -25.523438 129.785156 -25.507812 130.984375 -25.59375 C 131.378906 -25.59375 131.847656 -25.59375 132.390625 -25.59375 C 138.046875 -25.695312 143.671875 -25.800781 149.265625 -25.90625 C 152.585938 -26.039062 155.941406 -26.140625 159.328125 -26.203125 C 160.703125 -26.253906 162.066406 -26.222656 163.421875 -26.109375 Z M 163.421875 -26.109375 "/></g></g></g><g fill="#ffffff" fill-opacity="1"><g transform="translate(180.660734, 226.729822)"><g><path d="M 45.875 -20.84375 C 45.132812 -18.570312 43.660156 -15.96875 41.453125 -13.03125 C 39.253906 -10.101562 36.503906 -8.21875 33.203125 -7.375 C 29.910156 -6.539062 27.0625 -6.65625 24.65625 -7.71875 C 22.25 -8.789062 20.925781 -11.648438 20.6875 -16.296875 C 17.945312 -11.003906 15.34375 -7.613281 12.875 -6.125 C 10.40625 -4.632812 7.832031 -4.066406 5.15625 -4.421875 C 2.125 -4.910156 0.078125 -6.085938 -0.984375 -7.953125 C -2.054688 -9.816406 -2.414062 -11.96875 -2.0625 -14.40625 C -1.71875 -16.851562 -0.976562 -19.203125 0.15625 -21.453125 C 1.050781 -23.128906 2.289062 -24.679688 3.875 -26.109375 C 5.457031 -27.546875 7.113281 -28.671875 8.84375 -29.484375 C 10.976562 -30.566406 13.125 -31.078125 15.28125 -31.015625 C 17.445312 -30.960938 19.757812 -30.25 22.21875 -28.875 C 22.269531 -28.820312 22.296875 -28.875 22.296875 -29.03125 C 22.296875 -29.28125 22.359375 -29.585938 22.484375 -29.953125 C 22.609375 -30.316406 22.816406 -30.601562 23.109375 -30.8125 C 23.921875 -31.40625 24.878906 -31.703125 25.984375 -31.703125 C 27.097656 -31.703125 27.953125 -31.148438 28.546875 -30.046875 C 28.648438 -28.617188 28.5 -26.796875 28.09375 -24.578125 C 27.207031 -19.710938 27.207031 -16.210938 28.09375 -14.078125 C 28.988281 -11.941406 30.566406 -10.945312 32.828125 -11.09375 C 35.085938 -11.238281 38.015625 -13.46875 41.609375 -17.78125 C 45.203125 -22.09375 46.625 -23.113281 45.875 -20.84375 Z M 5.953125 -9.40625 C 7.203125 -8.507812 8.628906 -8.628906 10.234375 -9.765625 C 11.847656 -10.898438 13.394531 -12.507812 14.875 -14.59375 C 16.363281 -16.675781 17.613281 -18.757812 18.625 -20.84375 C 19.644531 -22.925781 20.207031 -24.46875 20.3125 -25.46875 C 17.289062 -27.09375 14.695312 -27.367188 12.53125 -26.296875 C 10.363281 -25.222656 8.640625 -23.476562 7.359375 -21.0625 C 6.078125 -18.644531 5.3125 -16.289062 5.0625 -14 C 4.820312 -11.71875 5.117188 -10.1875 5.953125 -9.40625 Z M 5.953125 -9.40625 "/></g></g></g><g fill="#ffffff" fill-opacity="1"><g transform="translate(223.641728, 226.729822)"><g><path d="M 33.53125 -15.609375 C 35.613281 -18.910156 36.847656 -21.003906 37.234375 -21.890625 C 37.628906 -22.785156 37.941406 -22.742188 38.171875 -21.765625 C 38.398438 -20.796875 37.726562 -18.601562 36.15625 -15.1875 C 34.59375 -11.769531 32.648438 -9.132812 30.328125 -7.28125 C 28.003906 -5.425781 25.832031 -4.738281 23.8125 -5.21875 C 21.800781 -5.707031 20.363281 -7.109375 19.5 -9.421875 C 18.632812 -11.734375 18.378906 -14.648438 18.734375 -18.171875 C 18.734375 -18.222656 18.757812 -18.367188 18.8125 -18.609375 C 18.863281 -19.203125 18.960938 -20.078125 19.109375 -21.234375 C 19.265625 -22.398438 19.375 -23.601562 19.4375 -24.84375 C 19.507812 -26.09375 19.46875 -27.125 19.3125 -27.9375 C 19.164062 -28.75 18.796875 -29.035156 18.203125 -28.796875 C 16.773438 -28.003906 15.378906 -26.46875 14.015625 -24.1875 C 12.648438 -21.90625 11.410156 -19.515625 10.296875 -17.015625 C 9.191406 -14.515625 8.410156 -12.492188 7.953125 -10.953125 C 7.753906 -10.460938 7.578125 -9.945312 7.421875 -9.40625 C 7.179688 -8.707031 6.910156 -8.003906 6.609375 -7.296875 C 5.828125 -5.265625 4.460938 -4.484375 2.515625 -4.953125 C 1.429688 -5.191406 0.796875 -5.851562 0.609375 -6.9375 C 0.554688 -7.769531 0.53125 -8.566406 0.53125 -9.328125 C 0.53125 -9.816406 0.503906 -10.265625 0.453125 -10.671875 C 0.335938 -16.671875 0.1875 -22.710938 0 -28.796875 C 0.0507812 -29.492188 0.359375 -29.976562 0.921875 -30.25 C 1.492188 -30.519531 2.171875 -30.65625 2.953125 -30.65625 C 3.554688 -30.65625 4.117188 -30.492188 4.640625 -30.171875 C 5.171875 -29.847656 5.503906 -29.171875 5.640625 -28.140625 C 5.691406 -27.785156 5.71875 -27.4375 5.71875 -27.09375 C 5.769531 -26.894531 5.796875 -26.71875 5.796875 -26.5625 C 5.898438 -25.71875 5.953125 -25 5.953125 -24.40625 C 5.953125 -23.519531 6.015625 -22.910156 6.140625 -22.578125 C 6.265625 -22.253906 6.519531 -22.269531 6.90625 -22.625 C 7.300781 -22.976562 7.945312 -23.816406 8.84375 -25.140625 C 10.382812 -27.515625 12.289062 -29.53125 14.5625 -31.1875 C 16.644531 -32.664062 18.925781 -33.285156 21.40625 -33.046875 C 23.539062 -32.828125 24.972656 -31.707031 25.703125 -29.6875 C 26.003906 -28.65625 26.15625 -27.617188 26.15625 -26.578125 C 26.15625 -25.535156 26.085938 -24.488281 25.953125 -23.4375 C 25.898438 -22.351562 25.816406 -21.242188 25.703125 -20.109375 C 25.628906 -19.753906 25.5625 -19.40625 25.5 -19.0625 C 25.15625 -15.195312 25.28125 -12.609375 25.875 -11.296875 C 26.46875 -9.984375 27.367188 -9.550781 28.578125 -10 C 29.796875 -10.445312 31.445312 -12.316406 33.53125 -15.609375 Z M 33.53125 -15.609375 "/></g></g></g><g fill="#ffffff" fill-opacity="1"><g transform="translate(259.324062, 226.729822)"><g><path d="M 33.53125 -15.609375 C 35.613281 -18.910156 36.847656 -21.003906 37.234375 -21.890625 C 37.628906 -22.785156 37.941406 -22.742188 38.171875 -21.765625 C 38.398438 -20.796875 37.726562 -18.601562 36.15625 -15.1875 C 34.59375 -11.769531 32.648438 -9.132812 30.328125 -7.28125 C 28.003906 -5.425781 25.832031 -4.738281 23.8125 -5.21875 C 21.800781 -5.707031 20.363281 -7.109375 19.5 -9.421875 C 18.632812 -11.734375 18.378906 -14.648438 18.734375 -18.171875 C 18.734375 -18.222656 18.757812 -18.367188 18.8125 -18.609375 C 18.863281 -19.203125 18.960938 -20.078125 19.109375 -21.234375 C 19.265625 -22.398438 19.375 -23.601562 19.4375 -24.84375 C 19.507812 -26.09375 19.46875 -27.125 19.3125 -27.9375 C 19.164062 -28.75 18.796875 -29.035156 18.203125 -28.796875 C 16.773438 -28.003906 15.378906 -26.46875 14.015625 -24.1875 C 12.648438 -21.90625 11.410156 -19.515625 10.296875 -17.015625 C 9.191406 -14.515625 8.410156 -12.492188 7.953125 -10.953125 C 7.753906 -10.460938 7.578125 -9.945312 7.421875 -9.40625 C 7.179688 -8.707031 6.910156 -8.003906 6.609375 -7.296875 C 5.828125 -5.265625 4.460938 -4.484375 2.515625 -4.953125 C 1.429688 -5.191406 0.796875 -5.851562 0.609375 -6.9375 C 0.554688 -7.769531 0.53125 -8.566406 0.53125 -9.328125 C 0.53125 -9.816406 0.503906 -10.265625 0.453125 -10.671875 C 0.335938 -16.671875 0.1875 -22.710938 0 -28.796875 C 0.0507812 -29.492188 0.359375 -29.976562 0.921875 -30.25 C 1.492188 -30.519531 2.171875 -30.65625 2.953125 -30.65625 C 3.554688 -30.65625 4.117188 -30.492188 4.640625 -30.171875 C 5.171875 -29.847656 5.503906 -29.171875 5.640625 -28.140625 C 5.691406 -27.785156 5.71875 -27.4375 5.71875 -27.09375 C 5.769531 -26.894531 5.796875 -26.71875 5.796875 -26.5625 C 5.898438 -25.71875 5.953125 -25 5.953125 -24.40625 C 5.953125 -23.519531 6.015625 -22.910156 6.140625 -22.578125 C 6.265625 -22.253906 6.519531 -22.269531 6.90625 -22.625 C 7.300781 -22.976562 7.945312 -23.816406 8.84375 -25.140625 C 10.382812 -27.515625 12.289062 -29.53125 14.5625 -31.1875 C 16.644531 -32.664062 18.925781 -33.285156 21.40625 -33.046875 C 23.539062 -32.828125 24.972656 -31.707031 25.703125 -29.6875 C 26.003906 -28.65625 26.15625 -27.617188 26.15625 -26.578125 C 26.15625 -25.535156 26.085938 -24.488281 25.953125 -23.4375 C 25.898438 -22.351562 25.816406 -21.242188 25.703125 -20.109375 C 25.628906 -19.753906 25.5625 -19.40625 25.5 -19.0625 C 25.15625 -15.195312 25.28125 -12.609375 25.875 -11.296875 C 26.46875 -9.984375 27.367188 -9.550781 28.578125 -10 C 29.796875 -10.445312 31.445312 -12.316406 33.53125 -15.609375 Z M 33.53125 -15.609375 "/></g></g></g><g fill="#ffffff" fill-opacity="1"><g transform="translate(295.006397, 226.729822)"><g><path d="M 45.875 -20.84375 C 45.132812 -18.570312 43.660156 -15.96875 41.453125 -13.03125 C 39.253906 -10.101562 36.503906 -8.21875 33.203125 -7.375 C 29.910156 -6.539062 27.0625 -6.65625 24.65625 -7.71875 C 22.25 -8.789062 20.925781 -11.648438 20.6875 -16.296875 C 17.945312 -11.003906 15.34375 -7.613281 12.875 -6.125 C 10.40625 -4.632812 7.832031 -4.066406 5.15625 -4.421875 C 2.125 -4.910156 0.078125 -6.085938 -0.984375 -7.953125 C -2.054688 -9.816406 -2.414062 -11.96875 -2.0625 -14.40625 C -1.71875 -16.851562 -0.976562 -19.203125 0.15625 -21.453125 C 1.050781 -23.128906 2.289062 -24.679688 3.875 -26.109375 C 5.457031 -27.546875 7.113281 -28.671875 8.84375 -29.484375 C 10.976562 -30.566406 13.125 -31.078125 15.28125 -31.015625 C 17.445312 -30.960938 19.757812 -30.25 22.21875 -28.875 C 22.269531 -28.820312 22.296875 -28.875 22.296875 -29.03125 C 22.296875 -29.28125 22.359375 -29.585938 22.484375 -29.953125 C 22.609375 -30.316406 22.816406 -30.601562 23.109375 -30.8125 C 23.921875 -31.40625 24.878906 -31.703125 25.984375 -31.703125 C 27.097656 -31.703125 27.953125 -31.148438 28.546875 -30.046875 C 28.648438 -28.617188 28.5 -26.796875 28.09375 -24.578125 C 27.207031 -19.710938 27.207031 -16.210938 28.09375 -14.078125 C 28.988281 -11.941406 30.566406 -10.945312 32.828125 -11.09375 C 35.085938 -11.238281 38.015625 -13.46875 41.609375 -17.78125 C 45.203125 -22.09375 46.625 -23.113281 45.875 -20.84375 Z M 5.953125 -9.40625 C 7.203125 -8.507812 8.628906 -8.628906 10.234375 -9.765625 C 11.847656 -10.898438 13.394531 -12.507812 14.875 -14.59375 C 16.363281 -16.675781 17.613281 -18.757812 18.625 -20.84375 C 19.644531 -22.925781 20.207031 -24.46875 20.3125 -25.46875 C 17.289062 -27.09375 14.695312 -27.367188 12.53125 -26.296875 C 10.363281 -25.222656 8.640625 -23.476562 7.359375 -21.0625 C 6.078125 -18.644531 5.3125 -16.289062 5.0625 -14 C 4.820312 -11.71875 5.117188 -10.1875 5.953125 -9.40625 Z M 5.953125 -9.40625 "/></g></g></g><g fill="#ffffff" fill-opacity="1"><g transform="translate(195.903764, 239.029481)"><g><path d="M 4.46875 -5.828125 L 0.640625 -11.171875 L 2.078125 -11.171875 L 5.1875 -6.78125 L 8.296875 -11.171875 L 9.734375 -11.171875 L 5.90625 -5.828125 L 10.0625 0 L 8.625 0 L 5.1875 -4.875 L 1.75 0 L 0.3125 0 Z M 4.46875 -5.828125 "/></g></g></g><g fill="#ffffff" fill-opacity="1"><g transform="translate(216.502207, 239.029481)"><g><path d="M 0.484375 -11.171875 L 1.75 -11.171875 L 5.421875 -1.671875 L 9.109375 -11.171875 L 10.375 -11.171875 L 5.984375 0 L 4.875 0 Z M 0.484375 -11.171875 "/></g></g></g><g fill="#ffffff" fill-opacity="1"><g transform="translate(237.579588, 239.029481)"><g><path d="M 1.671875 -11.171875 L 2.875 -11.171875 L 2.875 0 L 1.671875 0 Z M 1.671875 -11.171875 "/></g></g></g><g clip-path="url(#df832fc23e)"><path fill="#fffef9" d="M 135.085938 8.257812 C 137.953125 7.539062 140.832031 6.890625 143.726562 6.3125 C 146.625 5.734375 149.535156 5.222656 152.453125 4.789062 C 155.375 4.351562 158.304688 3.984375 161.242188 3.6875 C 164.183594 3.394531 167.128906 3.171875 170.078125 3.019531 C 173.027344 2.867188 175.976562 2.785156 178.929688 2.777344 C 181.886719 2.769531 184.835938 2.832031 187.789062 2.96875 C 190.738281 3.101562 193.683594 3.308594 196.625 3.585938 C 199.5625 3.867188 202.496094 4.214844 205.417969 4.636719 C 208.34375 5.054688 211.253906 5.546875 214.15625 6.109375 C 217.054688 6.671875 219.9375 7.304688 222.808594 8.003906 C 225.675781 8.707031 228.527344 9.480469 231.359375 10.320312 C 234.1875 11.160156 237 12.070312 239.785156 13.046875 C 242.574219 14.023438 245.335938 15.066406 248.070312 16.179688 C 250.808594 17.292969 253.515625 18.46875 256.195312 19.710938 C 258.875 20.953125 261.523438 22.261719 264.136719 23.632812 C 266.753906 25.003906 269.335938 26.4375 271.878906 27.9375 C 274.425781 29.433594 276.933594 30.992188 279.40625 32.609375 C 281.875 34.230469 284.304688 35.90625 286.695312 37.644531 C 289.082031 39.378906 291.429688 41.175781 293.730469 43.023438 C 296.03125 44.875 298.285156 46.78125 300.496094 48.742188 C 302.703125 50.703125 304.863281 52.714844 306.976562 54.78125 C 309.085938 56.847656 311.148438 58.960938 313.15625 61.128906 C 315.164062 63.292969 317.117188 65.507812 319.019531 67.765625 C 320.921875 70.027344 322.765625 72.332031 324.554688 74.683594 C 326.34375 77.03125 328.074219 79.425781 329.746094 81.859375 C 331.421875 84.292969 333.03125 86.765625 334.585938 89.28125 C 336.136719 91.792969 337.628906 94.339844 339.058594 96.925781 C 340.484375 99.511719 341.851562 102.128906 343.152344 104.78125 C 344.453125 107.433594 345.691406 110.113281 346.859375 112.824219 C 348.03125 115.535156 349.136719 118.273438 350.175781 121.039062 C 351.214844 123.804688 352.183594 126.59375 353.085938 129.40625 C 353.988281 132.21875 354.824219 135.050781 355.585938 137.902344 C 355.871094 138.957031 356.148438 140.03125 356.417969 141.125 L 353.628906 142.09375 C 353.34375 140.949219 353.054688 139.804688 352.746094 138.660156 C 351.988281 135.832031 351.160156 133.027344 350.265625 130.238281 C 349.371094 127.453125 348.410156 124.6875 347.378906 121.949219 C 346.347656 119.207031 345.253906 116.496094 344.089844 113.808594 C 342.925781 111.121094 341.699219 108.464844 340.40625 105.839844 C 339.109375 103.214844 337.753906 100.621094 336.335938 98.058594 C 334.914062 95.5 333.433594 92.976562 331.890625 90.488281 C 330.34375 88.003906 328.742188 85.554688 327.078125 83.144531 C 325.414062 80.738281 323.691406 78.371094 321.914062 76.046875 C 320.132812 73.722656 318.296875 71.441406 316.40625 69.207031 C 314.515625 66.972656 312.570312 64.785156 310.574219 62.648438 C 308.574219 60.507812 306.527344 58.417969 304.425781 56.378906 C 302.324219 54.339844 300.175781 52.355469 297.976562 50.417969 C 295.78125 48.484375 293.535156 46.605469 291.246094 44.785156 C 288.957031 42.960938 286.625 41.191406 284.25 39.484375 C 281.871094 37.773438 279.457031 36.121094 277 34.53125 C 274.542969 32.941406 272.046875 31.410156 269.515625 29.941406 C 266.984375 28.472656 264.417969 27.066406 261.816406 25.722656 C 259.214844 24.378906 256.582031 23.097656 253.917969 21.882812 C 251.257812 20.667969 248.5625 19.519531 245.84375 18.4375 C 243.125 17.355469 240.378906 16.339844 237.609375 15.390625 C 234.839844 14.441406 232.050781 13.5625 229.238281 12.75 C 226.425781 11.9375 223.59375 11.195312 220.746094 10.523438 C 217.898438 9.847656 215.035156 9.246094 212.15625 8.714844 C 209.277344 8.179688 206.386719 7.71875 203.484375 7.328125 C 200.585938 6.933594 197.675781 6.613281 194.757812 6.367188 C 191.84375 6.117188 188.921875 5.9375 185.996094 5.832031 C 183.070312 5.726562 180.144531 5.691406 177.214844 5.730469 C 174.289062 5.765625 171.363281 5.875 168.441406 6.054688 C 165.519531 6.234375 162.605469 6.488281 159.695312 6.8125 C 156.785156 7.132812 153.886719 7.527344 150.996094 7.992188 C 148.105469 8.457031 145.230469 8.996094 142.367188 9.601562 C 139.5 10.207031 136.65625 10.882812 133.824219 11.628906 C 134.265625 10.515625 134.691406 9.402344 135.085938 8.265625 Z M 5.503906 228.703125 C 5.738281 229.640625 5.976562 230.574219 6.230469 231.511719 C 6.988281 234.347656 7.816406 237.160156 8.714844 239.957031 C 9.613281 242.75 10.578125 245.519531 11.613281 248.265625 C 12.648438 251.015625 13.746094 253.734375 14.914062 256.425781 C 16.082031 259.117188 17.3125 261.78125 18.613281 264.414062 C 19.910156 267.046875 21.269531 269.644531 22.695312 272.210938 C 24.121094 274.773438 25.609375 277.304688 27.160156 279.796875 C 28.707031 282.289062 30.320312 284.742188 31.988281 287.152344 C 33.660156 289.566406 35.386719 291.9375 37.171875 294.265625 C 38.960938 296.59375 40.800781 298.878906 42.699219 301.117188 C 44.597656 303.355469 46.550781 305.542969 48.554688 307.6875 C 50.5625 309.828125 52.621094 311.921875 54.726562 313.960938 C 56.835938 316.003906 58.992188 317.992188 61.199219 319.925781 C 63.40625 321.863281 65.660156 323.742188 67.957031 325.566406 C 70.253906 327.390625 72.597656 329.160156 74.980469 330.871094 C 77.367188 332.578125 79.792969 334.230469 82.257812 335.820312 C 84.726562 337.410156 87.230469 338.941406 89.769531 340.410156 C 92.3125 341.875 94.886719 343.28125 97.496094 344.625 C 100.105469 345.964844 102.75 347.242188 105.421875 348.453125 C 108.09375 349.664062 110.796875 350.8125 113.523438 351.890625 C 116.253906 352.96875 119.007812 353.980469 121.785156 354.925781 C 124.566406 355.871094 127.363281 356.746094 130.1875 357.550781 C 133.007812 358.359375 135.847656 359.09375 138.707031 359.761719 C 141.5625 360.429688 144.4375 361.027344 147.324219 361.554688 C 150.210938 362.078125 153.109375 362.535156 156.019531 362.917969 C 158.925781 363.304688 161.84375 363.617188 164.769531 363.855469 C 167.695312 364.097656 170.625 364.265625 173.554688 364.363281 C 176.488281 364.460938 179.421875 364.484375 182.359375 364.4375 C 185.292969 364.390625 188.222656 364.273438 191.152344 364.082031 C 194.082031 363.890625 197.003906 363.628906 199.917969 363.296875 C 202.832031 362.960938 205.738281 362.554688 208.636719 362.078125 C 211.53125 361.601562 214.414062 361.054688 217.28125 360.4375 C 220.152344 359.820312 223.003906 359.132812 225.839844 358.371094 C 225.378906 359.484375 224.9375 360.605469 224.527344 361.742188 C 221.660156 362.472656 218.773438 363.132812 215.875 363.726562 C 212.972656 364.316406 210.058594 364.835938 207.132812 365.28125 C 204.207031 365.730469 201.269531 366.109375 198.328125 366.414062 C 195.382812 366.71875 192.433594 366.953125 189.476562 367.113281 C 186.519531 367.273438 183.5625 367.363281 180.601562 367.382812 C 177.640625 367.398438 174.683594 367.34375 171.722656 367.21875 C 168.765625 367.09375 165.8125 366.894531 162.867188 366.625 C 159.917969 366.351562 156.976562 366.011719 154.046875 365.597656 C 151.117188 365.183594 148.195312 364.699219 145.289062 364.144531 C 142.378906 363.589844 139.488281 362.960938 136.609375 362.265625 C 133.734375 361.570312 130.875 360.804688 128.035156 359.96875 C 125.195312 359.132812 122.378906 358.226562 119.582031 357.253906 C 116.785156 356.28125 114.015625 355.242188 111.269531 354.132812 C 108.523438 353.023438 105.808594 351.851562 103.121094 350.609375 C 100.433594 349.371094 97.777344 348.066406 95.152344 346.695312 C 92.527344 345.324219 89.9375 343.894531 87.382812 342.398438 C 84.828125 340.902344 82.3125 339.34375 79.832031 337.726562 C 77.351562 336.109375 74.914062 334.429688 72.519531 332.695312 C 70.121094 330.957031 67.765625 329.164062 65.457031 327.3125 C 63.148438 325.460938 60.882812 323.550781 58.667969 321.589844 C 56.449219 319.628906 54.28125 317.613281 52.164062 315.546875 C 50.046875 313.480469 47.976562 311.359375 45.960938 309.191406 C 43.945312 307.023438 41.984375 304.808594 40.078125 302.546875 C 38.167969 300.28125 36.316406 297.972656 34.523438 295.617188 C 32.726562 293.265625 30.992188 290.867188 29.3125 288.429688 C 27.632812 285.992188 26.015625 283.515625 24.457031 280.996094 C 22.898438 278.480469 21.402344 275.925781 19.96875 273.335938 C 18.535156 270.746094 17.167969 268.121094 15.859375 265.464844 C 14.554688 262.808594 13.316406 260.121094 12.140625 257.40625 C 10.964844 254.6875 9.855469 251.941406 8.816406 249.171875 C 7.773438 246.402344 6.800781 243.605469 5.894531 240.789062 C 4.992188 237.96875 4.15625 235.128906 3.386719 232.269531 C 3.160156 231.410156 2.9375 230.542969 2.714844 229.679688 Z M 5.503906 228.703125 " fill-opacity="1" fill-rule="evenodd"/></g><g clip-path="url(#22353b653c)"><g clip-path="url(#2f73471881)"><g clip-path="url(#61757c1f6f)"><path fill="#ffee52" d="M 299.414062 346.089844 C 296.894531 347.632812 294.335938 349.109375 291.746094 350.527344 C 289.152344 351.941406 286.527344 353.292969 283.871094 354.582031 C 281.214844 355.871094 278.527344 357.09375 275.808594 358.253906 C 273.09375 359.410156 270.347656 360.503906 267.578125 361.527344 C 264.808594 362.554688 262.015625 363.511719 259.199219 364.398438 C 256.382812 365.289062 253.546875 366.109375 250.691406 366.859375 C 247.832031 367.609375 244.960938 368.292969 242.070312 368.90625 C 239.179688 369.515625 236.277344 370.058594 233.363281 370.527344 C 230.445312 371 227.523438 371.398438 224.585938 371.726562 C 221.652344 372.054688 218.710938 372.3125 215.761719 372.496094 C 212.8125 372.683594 209.863281 372.796875 206.910156 372.839844 C 203.957031 372.882812 201.003906 372.851562 198.050781 372.75 C 195.101562 372.648438 192.152344 372.476562 189.210938 372.234375 C 186.265625 371.988281 183.332031 371.671875 180.402344 371.285156 C 177.472656 370.898438 174.558594 370.441406 171.652344 369.910156 C 168.746094 369.382812 165.855469 368.785156 162.976562 368.113281 C 160.101562 367.445312 157.242188 366.707031 154.402344 365.898438 C 151.5625 365.089844 148.742188 364.210938 145.941406 363.265625 C 143.144531 362.320312 140.371094 361.308594 137.621094 360.230469 C 134.871094 359.148438 132.152344 358.003906 129.457031 356.789062 C 126.765625 355.578125 124.101562 354.300781 121.472656 352.960938 C 118.839844 351.617188 116.242188 350.214844 113.679688 348.746094 C 111.117188 347.277344 108.589844 345.75 106.101562 344.160156 C 103.613281 342.566406 101.164062 340.917969 98.757812 339.207031 C 96.347656 337.5 93.984375 335.730469 91.660156 333.90625 C 89.335938 332.082031 87.058594 330.203125 84.828125 328.269531 C 82.597656 326.332031 80.414062 324.34375 78.28125 322.304688 C 76.144531 320.261719 74.0625 318.171875 72.027344 316.027344 C 69.996094 313.886719 68.015625 311.695312 66.089844 309.457031 C 64.160156 307.21875 62.289062 304.933594 60.472656 302.605469 C 58.660156 300.273438 56.902344 297.902344 55.199219 295.488281 C 53.5 293.074219 51.859375 290.617188 50.277344 288.125 C 49.691406 287.203125 49.109375 286.261719 48.527344 285.296875 L 50.894531 283.539062 C 51.507812 284.546875 52.128906 285.550781 52.765625 286.550781 C 54.332031 289.023438 55.957031 291.457031 57.644531 293.851562 C 59.328125 296.246094 61.070312 298.59375 62.871094 300.902344 C 64.671875 303.210938 66.527344 305.472656 68.441406 307.691406 C 70.351562 309.910156 72.316406 312.078125 74.335938 314.199219 C 76.351562 316.320312 78.421875 318.390625 80.539062 320.410156 C 82.660156 322.429688 84.824219 324.394531 87.042969 326.308594 C 89.257812 328.222656 91.519531 330.082031 93.824219 331.882812 C 96.128906 333.6875 98.480469 335.429688 100.871094 337.121094 C 103.261719 338.808594 105.695312 340.433594 108.167969 342.003906 C 110.636719 343.574219 113.144531 345.082031 115.691406 346.527344 C 118.238281 347.972656 120.816406 349.355469 123.429688 350.675781 C 126.042969 351.992188 128.6875 353.25 131.359375 354.4375 C 134.035156 355.628906 136.738281 356.753906 139.464844 357.8125 C 142.195312 358.867188 144.949219 359.859375 147.726562 360.78125 C 150.507812 361.707031 153.304688 362.558594 156.125 363.34375 C 158.945312 364.132812 161.78125 364.847656 164.636719 365.496094 C 167.492188 366.140625 170.363281 366.71875 173.246094 367.226562 C 176.128906 367.730469 179.023438 368.167969 181.925781 368.53125 C 184.832031 368.898438 187.742188 369.191406 190.660156 369.414062 C 193.582031 369.636719 196.503906 369.785156 199.429688 369.867188 C 202.355469 369.945312 205.28125 369.953125 208.207031 369.886719 C 211.136719 369.824219 214.058594 369.6875 216.980469 369.480469 C 219.898438 369.273438 222.8125 368.996094 225.71875 368.644531 C 228.625 368.296875 231.519531 367.875 234.40625 367.382812 C 237.292969 366.890625 240.164062 366.328125 243.023438 365.695312 C 245.878906 365.066406 248.722656 364.363281 251.546875 363.589844 C 254.371094 362.820312 257.171875 361.980469 259.957031 361.070312 C 262.738281 360.164062 265.496094 359.1875 268.230469 358.140625 C 270.96875 357.097656 273.675781 355.988281 276.355469 354.8125 C 279.035156 353.636719 281.6875 352.394531 284.304688 351.089844 C 286.925781 349.78125 289.511719 348.414062 292.066406 346.980469 C 294.617188 345.546875 297.132812 344.050781 299.613281 342.496094 C 299.523438 343.691406 299.449219 344.878906 299.410156 346.082031 Z M 357.335938 97.027344 C 356.832031 96.199219 356.328125 95.382812 355.804688 94.5625 C 354.234375 92.082031 352.605469 89.644531 350.914062 87.242188 C 349.222656 84.84375 347.476562 82.488281 345.667969 80.175781 C 343.863281 77.863281 342.003906 75.59375 340.085938 73.371094 C 338.167969 71.152344 336.195312 68.976562 334.171875 66.851562 C 332.148438 64.726562 330.074219 62.652344 327.949219 60.628906 C 325.824219 58.605469 323.648438 56.636719 321.425781 54.71875 C 319.203125 52.804688 316.933594 50.941406 314.621094 49.136719 C 312.308594 47.332031 309.949219 45.585938 307.550781 43.894531 C 305.152344 42.207031 302.710938 40.574219 300.234375 39.003906 C 297.753906 37.4375 295.238281 35.929688 292.683594 34.480469 C 290.128906 33.035156 287.542969 31.652344 284.921875 30.332031 C 282.300781 29.011719 279.648438 27.757812 276.964844 26.570312 C 274.28125 25.382812 271.570312 24.257812 268.832031 23.203125 C 266.09375 22.144531 263.332031 21.15625 260.546875 20.238281 C 257.757812 19.316406 254.949219 18.464844 252.121094 17.683594 C 249.292969 16.898438 246.449219 16.1875 243.585938 15.542969 C 240.722656 14.898438 237.84375 14.328125 234.953125 13.824219 C 232.0625 13.324219 229.160156 12.894531 226.246094 12.535156 C 223.332031 12.175781 220.414062 11.886719 217.488281 11.671875 C 214.558594 11.453125 211.628906 11.3125 208.695312 11.238281 C 205.761719 11.167969 202.828125 11.164062 199.894531 11.238281 C 196.960938 11.308594 194.03125 11.453125 191.105469 11.667969 C 188.175781 11.882812 185.257812 12.171875 182.34375 12.53125 C 179.433594 12.890625 176.53125 13.320312 173.636719 13.820312 C 170.746094 14.320312 167.867188 14.894531 165.003906 15.535156 C 162.140625 16.179688 159.296875 16.890625 156.46875 17.671875 C 153.636719 18.457031 150.832031 19.304688 148.042969 20.226562 C 145.257812 21.144531 142.496094 22.132812 139.757812 23.191406 C 137.019531 24.246094 134.308594 25.367188 131.625 26.554688 C 128.941406 27.746094 126.289062 29 123.667969 30.316406 C 121.046875 31.636719 118.457031 33.019531 115.902344 34.464844 C 113.351562 35.910156 110.832031 37.417969 108.351562 38.988281 C 108.457031 37.789062 108.546875 36.585938 108.597656 35.378906 C 111.117188 33.824219 113.675781 32.335938 116.269531 30.90625 C 118.859375 29.476562 121.488281 28.113281 124.144531 26.8125 C 126.804688 25.511719 129.496094 24.277344 132.214844 23.105469 C 134.933594 21.9375 137.679688 20.832031 140.453125 19.796875 C 143.226562 18.761719 146.023438 17.792969 148.84375 16.894531 C 151.664062 15.992188 154.503906 15.164062 157.363281 14.402344 C 160.226562 13.640625 163.101562 12.949219 165.996094 12.328125 C 168.890625 11.707031 171.800781 11.15625 174.71875 10.675781 C 177.640625 10.195312 180.574219 9.789062 183.515625 9.449219 C 186.453125 9.113281 189.402344 8.847656 192.355469 8.65625 C 195.308594 8.460938 198.265625 8.339844 201.226562 8.289062 C 204.1875 8.242188 207.148438 8.261719 210.105469 8.359375 C 213.0625 8.453125 216.019531 8.621094 218.96875 8.859375 C 221.921875 9.097656 224.863281 9.40625 227.800781 9.789062 C 230.734375 10.171875 233.660156 10.625 236.574219 11.148438 C 239.488281 11.671875 242.386719 12.265625 245.269531 12.933594 C 248.15625 13.597656 251.023438 14.332031 253.871094 15.140625 C 256.71875 15.945312 259.546875 16.816406 262.351562 17.761719 C 265.160156 18.703125 267.941406 19.714844 270.699219 20.792969 C 273.453125 21.871094 276.183594 23.015625 278.882812 24.226562 C 281.585938 25.4375 284.257812 26.714844 286.894531 28.054688 C 289.535156 29.398438 292.140625 30.800781 294.710938 32.269531 C 297.28125 33.738281 299.8125 35.269531 302.308594 36.859375 C 304.804688 38.449219 307.261719 40.101562 309.675781 41.8125 C 312.09375 43.523438 314.464844 45.292969 316.796875 47.121094 C 319.125 48.945312 321.410156 50.828125 323.648438 52.765625 C 325.882812 54.707031 328.074219 56.695312 330.214844 58.742188 C 332.355469 60.785156 334.445312 62.878906 336.484375 65.027344 C 338.523438 67.171875 340.507812 69.367188 342.441406 71.609375 C 344.375 73.855469 346.25 76.144531 348.070312 78.476562 C 349.890625 80.8125 351.652344 83.1875 353.359375 85.609375 C 355.0625 88.03125 356.707031 90.488281 358.292969 92.988281 C 358.765625 93.742188 359.238281 94.503906 359.707031 95.261719 Z M 357.335938 97.027344 " fill-opacity="1" fill-rule="evenodd"/></g></g></g></svg>